<svg width="25" class="loading-animation_logo__zgBNe" data-logo="" viewBox="0 0 15 21" fill="none" xmlns="http://www.w3.org/2000/svg"><path fill="#FFFFFF" d="M9.10361 8.7619C12.4729 9.4781 14.0126 10.88 14.0126 13.2419C14.0126 16.1981 11.6037 18.3771 7.83823 18.621L7.47237 20.3733C7.44189 20.541 7.28936 20.6629 7.1065 20.6629H4.20989C3.96593 20.6629 3.79831 20.4343 3.84403 20.2057L4.30132 18.2552C2.44136 17.7219 0.932025 16.6857 0.0631488 15.421C-0.0435179 15.2533 -0.0130417 15.04 0.139339 14.9181L2.15168 13.3486C2.31945 13.2114 2.56326 13.2571 2.68532 13.4248C3.75244 14.9181 5.39892 15.8019 7.38094 15.8019C9.16471 15.8019 10.5063 14.9333 10.5063 13.6838C10.5063 12.7238 9.83549 12.2819 7.56395 11.8095C3.69164 10.9714 2.15183 9.53905 2.15183 7.17714C2.15183 4.43429 4.45385 2.37714 7.92982 2.10286L8.31092 0.289524C8.3414 0.121905 8.49393 0 8.67679 0H11.5277C11.7564 0 11.9393 0.213334 11.8935 0.441905L11.4515 2.46857C12.9456 2.92571 14.1651 3.74857 14.9275 4.76952C15.0494 4.9219 15.0189 5.15048 14.8665 5.27238L13.0218 6.78095C12.854 6.9181 12.6254 6.88762 12.5034 6.72C11.5582 5.5619 10.0945 4.90667 8.49378 4.90667C6.71001 4.90667 5.59717 5.68381 5.59717 6.78095C5.56669 7.69524 6.43572 8.18286 9.10361 8.7619Z"></path></svg>